# xmcd
#
# Track frame offsets:
#	150
#	18120
#	33879
#	49723
#	63275
#	77762
#	94331
#	108085
#	125103
#	140354
#	161547
#	178310
#	196123
#	221802
#
# Disc length: 3246 seconds
#
# Revision: 6
# Processed by: cddbd v1.5.2PL0 Copyright (c) Steve Scherf et al.
# Submitted via: EasyCDDAExtractor 15.3.0.1
#
DISCID=bb0cac0e
DTITLE=RBD - Tour Generacion RBD En Vivo
DYEAR=2005
DGENRE=Latin
TTITLE0=Rebelde
TTITLE1=Otro Dia Que Va
TTITLE2=Enseñame
TTITLE3=Futuro Ex-Novio
TTITLE4=A Rabiar
TTITLE5=Una Cancion
TTITLE6=Fuego
TTITLE7=Salvame
TTITLE8=Tenerte Y Quererte
TTITLE9=Un Poco De Tu Amor
TTITLE10=Solo Quedate En Silencio
TTITLE11=Rebelde (Version Cumbia)
TTITLE12=Liso, Sensual
TTITLE13=Data
EXTD=
EXTT0=
EXTT1=
EXTT2=
EXTT3=
EXTT4=
EXTT5=
EXTT6=
EXTT7=
EXTT8=
EXTT9=
EXTT10=
EXTT11=
EXTT12=
EXTT13=
PLAYORDER=
